<svg width="24" height="24" viewBox="0 0 24 24" fill="none" xmlns="http://www.w3.org/2000/svg">
<path d="M22.7071 1.29289C22.9788 1.56453 23.0708 1.96776 22.9439 2.33035L15.9439 22.3304C15.8084 22.7174 15.4504 22.9825 15.0408 22.9992C14.6311 23.0159 14.2527 22.7808 14.0862 22.4061L10.2424 13.7576L1.59387 9.91381C1.21919 9.74729 0.984122 9.36892 1.00084 8.95924C1.01755 8.54956 1.28265 8.19159 1.66965 8.05614L21.6697 1.05614C22.0322 0.929236 22.4355 1.02126 22.7071 1.29289Z" fill="#00D373"/>
<mask id="mask0_261_1084" style="mask-type:alpha" maskUnits="userSpaceOnUse" x="1" y="1" width="22" height="22">
<path d="M22.7071 1.29289C22.9788 1.56453 23.0708 1.96776 22.9439 2.33035L15.9439 22.3303C15.8084 22.7173 15.4504 22.9825 15.0408 22.9992C14.6311 23.0159 14.2527 22.7808 14.0862 22.4061L10.2424 13.7576L1.59387 9.91381C1.21919 9.74728 0.984122 9.36891 1.00084 8.95923C1.01755 8.54956 1.28265 8.19159 1.66965 8.05614L21.6697 1.05614C22.0322 0.929234 22.4355 1.02125 22.7071 1.29289Z" fill="#00D373"/>
</mask>
<g mask="url(#mask0_261_1084)">
<path d="M22 2L10 14" stroke="white" stroke-width="2" stroke-linecap="round" stroke-linejoin="round"/>
</g>
</svg>
