<svg width="16" height="17" viewBox="0 0 16 17" fill="none" xmlns="http://www.w3.org/2000/svg">
<g id="Icon - Keyline / Receipt" clip-path="url(#clip0_689_4574)">
<path id="Vector" d="M13.3334 8.66426L13.3334 14.6409C13.3334 14.9854 12.9438 15.1856 12.6637 14.9851L11.8282 14.3872C11.6685 14.2728 11.4511 14.2835 11.3032 14.4128L10.0565 15.5034C9.89691 15.643 9.65868 15.643 9.49911 15.5034L8.00002 14.192L6.50093 15.5034C6.34136 15.643 6.10313 15.643 5.94355 15.5034L4.69684 14.4128C4.54898 14.2835 4.33155 14.2728 4.1718 14.3872L3.33632 14.9851C3.05621 15.1856 2.66669 14.9854 2.66669 14.6409L2.66669 8.66426M2.66669 8.77714L2.66669 2.80047C2.66669 2.456 3.0562 2.25578 3.33632 2.45626L4.1718 3.05422C4.33155 3.16856 4.54898 3.15795 4.69684 3.02861L5.94355 1.93803C6.10313 1.79844 6.34136 1.79844 6.50093 1.93803L8.00002 3.24937L9.49911 1.93803C9.65868 1.79845 9.89691 1.79844 10.0565 1.93803L11.3032 3.02861C11.4511 3.15795 11.6685 3.16856 11.8282 3.05422L12.6637 2.45626C12.9438 2.25578 13.3334 2.456 13.3334 2.80047L13.3334 8.77714" stroke="#555555" stroke-linecap="round" stroke-linejoin="round"/>
<path id="Vector_2" d="M4.66663 10.8405H8.11232M4.69159 8.83694H11.3333M4.69159 6.8052H11.3333" stroke="#555555" stroke-linecap="round" stroke-linejoin="round"/>
</g>
<defs>
<clipPath id="clip0_689_4574">
<rect width="16" height="16" fill="white" transform="translate(0 0.5)"/>
</clipPath>
</defs>
</svg>
